<?xml version="1.0" standalone="no"?>
<!DOCTYPE svg PUBLIC "-//W3C//DTD SVG 20010904//EN"
 "http://www.w3.org/TR/2001/REC-SVG-20010904/DTD/svg10.dtd">
<svg version="1.0" xmlns="http://www.w3.org/2000/svg"
 width="500.000000pt" height="500.000000pt" viewBox="0 0 500.000000 500.000000"
 preserveAspectRatio="xMidYMid meet">

<g transform="translate(0.000000,500.000000) scale(0.100000,-0.100000)"
fill="#000000" stroke="none">
<path d="M2679 3153 c0 -87 -2 -344 -4 -570 l-3 -413 89 0 89 0 0 93 c0 85 2
95 23 115 l24 22 67 -115 68 -115 104 0 c81 0 104 3 98 13 -4 6 -52 77 -106
155 -55 79 -102 150 -105 158 -3 7 12 34 34 58 l38 45 273 1 272 0 0 355 0
355 -480 0 -480 0 -1 -157z m821 -198 l0 -225 -247 0 -248 0 -77 -117 -78
-116 0 341 0 342 325 0 325 0 0 -225z"/>
<path d="M3040 2960 c0 -25 4 -30 25 -30 21 0 25 5 25 30 0 25 -4 30 -25 30
-21 0 -25 -5 -25 -30z"/>
<path d="M3180 2960 c0 -25 4 -30 25 -30 21 0 25 5 25 30 0 25 -4 30 -25 30
-21 0 -25 -5 -25 -30z"/>
<path d="M3320 2960 c0 -25 4 -30 25 -30 21 0 25 5 25 30 0 25 -4 30 -25 30
-21 0 -25 -5 -25 -30z"/>
<path d="M1370 2875 l0 -75 74 0 74 0 29 48 28 47 3 -362 2 -363 85 0 85 0 0
315 0 315 105 0 105 0 0 75 0 75 -295 0 -295 0 0 -75z"/>
<path d="M2430 2560 l0 -390 85 0 85 0 0 390 0 390 -85 0 -85 0 0 -390z"/>
<path d="M2015 2739 c-57 -9 -135 -37 -135 -48 0 -5 5 -23 11 -42 6 -19 12
-39 14 -46 3 -9 19 -7 59 8 108 37 206 13 206 -51 0 -5 -21 -11 -47 -15 -206
-25 -291 -93 -281 -225 7 -100 76 -160 183 -160 49 0 126 27 139 49 11 18 24
13 28 -11 3 -21 9 -23 78 -26 l76 -3 -4 203 c-3 186 -6 207 -27 254 -33 75
-90 109 -195 117 -30 2 -77 0 -105 -4z m163 -322 c13 -68 -36 -137 -96 -137
-102 0 -94 125 10 150 51 13 82 8 86 -13z"/>
<path d="M1764 2010 c-28 -11 -54 -48 -54 -78 0 -35 43 -72 83 -72 19 0 40 6
46 13 16 20 3 27 -25 15 -52 -24 -98 46 -57 87 12 13 26 15 55 11 46 -8 50 8
7 23 -18 6 -32 11 -33 10 -1 0 -11 -4 -22 -9z"/>
<path d="M2094 2006 c-76 -33 -48 -146 36 -146 43 0 80 35 80 76 0 32 -28 74
-49 74 -5 0 -15 2 -23 5 -7 2 -27 -2 -44 -9z m76 -31 c30 -36 4 -95 -41 -95
-40 0 -66 69 -37 98 17 17 63 15 78 -3z"/>
<path d="M3185 2013 c-57 -14 -76 -90 -32 -131 71 -67 183 35 117 106 -12 12
-25 22 -30 22 -4 0 -14 2 -22 4 -7 2 -22 1 -33 -1z m63 -35 c18 -18 14 -63 -8
-83 -45 -41 -110 18 -76 70 18 27 63 34 84 13z"/>
<path d="M2420 1935 c0 -59 3 -75 14 -75 11 0 16 15 18 51 l3 50 39 -50 c54
-72 66 -68 66 24 0 60 -3 75 -15 75 -11 0 -15 -12 -15 -47 l-1 -48 -42 48
c-59 66 -67 62 -67 -28z"/>
<path d="M2780 1935 l0 -75 40 0 c77 0 123 46 101 103 -13 34 -39 47 -95 47
l-46 0 0 -75z m105 35 c24 -27 10 -71 -27 -84 -44 -15 -58 -3 -58 54 l0 50 33
0 c21 0 41 -8 52 -20z"/>
</g>
</svg>
